<mxfile host="app.diagrams.net" modified="2024-05-08T07:37:44.641Z" agent="Mozilla/5.0 (Windows NT 10.0; Win64; x64) AppleWebKit/537.36 (KHTML, like Gecko) Chrome/124.0.0.0 Safari/537.36 Edg/124.0.0.0" etag="w0utV5G2rXQgx1lJ23wl" version="24.3.1" type="github">
  <diagram name="Page-1" id="sOziE8dT4qFg1iAiZ-Hs">
    <mxGraphModel dx="971" dy="1626" grid="1" gridSize="10" guides="1" tooltips="1" connect="1" arrows="1" fold="1" page="1" pageScale="1" pageWidth="850" pageHeight="1100" math="0" shadow="0">
      <root>
        <mxCell id="0" />
        <mxCell id="1" parent="0" />
        <mxCell id="C3ebN4LlkltqnnoYm93K-7" value="" style="edgeStyle=orthogonalEdgeStyle;rounded=0;orthogonalLoop=1;jettySize=auto;html=1;entryX=0;entryY=0.5;entryDx=0;entryDy=0;" edge="1" parent="1" source="C3ebN4LlkltqnnoYm93K-1" target="C3ebN4LlkltqnnoYm93K-8">
          <mxGeometry relative="1" as="geometry">
            <mxPoint x="365" y="180" as="targetPoint" />
          </mxGeometry>
        </mxCell>
        <mxCell id="C3ebN4LlkltqnnoYm93K-1" value="&lt;b&gt;&lt;font color=&quot;#3333ff&quot;&gt;Client&lt;/font&gt;&lt;/b&gt;" style="shape=umlActor;verticalLabelPosition=bottom;verticalAlign=top;html=1;outlineConnect=0;" vertex="1" parent="1">
          <mxGeometry x="180" y="150" width="30" height="60" as="geometry" />
        </mxCell>
        <mxCell id="C3ebN4LlkltqnnoYm93K-3" value="&lt;b&gt;&lt;font style=&quot;font-size: 15px;&quot;&gt;&lt;u&gt;USER FLOW -&amp;nbsp;&lt;/u&gt;&lt;/font&gt;&lt;/b&gt;&lt;b&gt;&lt;font style=&quot;font-size: 15px;&quot;&gt;&lt;u&gt;BRICKX&amp;nbsp;&lt;/u&gt;&lt;/font&gt;&lt;/b&gt;" style="text;html=1;align=center;verticalAlign=middle;whiteSpace=wrap;rounded=0;direction=south;" vertex="1" parent="1">
          <mxGeometry x="400" y="-5" width="190" height="15" as="geometry" />
        </mxCell>
        <mxCell id="C3ebN4LlkltqnnoYm93K-4" value="&lt;b&gt;&lt;font color=&quot;#00994d&quot;&gt;Worker&lt;/font&gt;&lt;/b&gt;" style="shape=umlActor;verticalLabelPosition=bottom;verticalAlign=top;html=1;outlineConnect=0;" vertex="1" parent="1">
          <mxGeometry x="150" y="470" width="30" height="60" as="geometry" />
        </mxCell>
        <mxCell id="C3ebN4LlkltqnnoYm93K-10" value="" style="edgeStyle=orthogonalEdgeStyle;rounded=0;orthogonalLoop=1;jettySize=auto;html=1;" edge="1" parent="1" source="C3ebN4LlkltqnnoYm93K-8" target="C3ebN4LlkltqnnoYm93K-9">
          <mxGeometry relative="1" as="geometry" />
        </mxCell>
        <mxCell id="C3ebN4LlkltqnnoYm93K-8" value="&lt;h1 style=&quot;margin-top: 0px;&quot;&gt;&lt;font style=&quot;font-size: 15px;&quot;&gt;&lt;span style=&quot;white-space: pre;&quot;&gt;&#x9;&lt;/span&gt;Create an account&lt;/font&gt;&lt;/h1&gt;&lt;p&gt;&lt;/p&gt;&lt;ul&gt;&lt;li&gt;&lt;span style=&quot;background-color: initial;&quot;&gt;User should be able to create account using phone number or email.&lt;/span&gt;&lt;/li&gt;&lt;/ul&gt;&lt;p&gt;&lt;/p&gt;" style="text;html=1;whiteSpace=wrap;overflow=hidden;rounded=0;" vertex="1" parent="1">
          <mxGeometry x="335" y="120" width="180" height="120" as="geometry" />
        </mxCell>
        <mxCell id="C3ebN4LlkltqnnoYm93K-9" value="&lt;h1 style=&quot;margin-top: 0px;&quot;&gt;&lt;font style=&quot;font-size: 15px;&quot;&gt;&lt;span style=&quot;white-space: pre;&quot;&gt;&#x9;&lt;/span&gt;Get verified&lt;/font&gt;&lt;/h1&gt;&lt;p&gt;&lt;/p&gt;&lt;ul&gt;&lt;li&gt;&lt;span style=&quot;background-color: initial;&quot;&gt;User should receive an otp via mail or sms, prompting to verify account.&lt;/span&gt;&lt;/li&gt;&lt;/ul&gt;&lt;p&gt;&lt;/p&gt;" style="text;html=1;whiteSpace=wrap;overflow=hidden;rounded=0;" vertex="1" parent="1">
          <mxGeometry x="335" y="340" width="180" height="120" as="geometry" />
        </mxCell>
      </root>
    </mxGraphModel>
  </diagram>
</mxfile>
